<svg width="1381" height="1381" viewBox="0 0 1381 1381" fill="none" xmlns="http://www.w3.org/2000/svg">
<rect width="1381" height="1381" stroke="black"/>
<path d="M460.333 805.583C651.01 805.583 805.583 651.01 805.583 460.333C805.583 269.657 651.01 115.083 460.333 115.083C269.657 115.083 115.083 269.657 115.083 460.333C115.083 651.01 269.657 805.583 460.333 805.583Z" stroke="#FFF942" stroke-width="99" stroke-linecap="round" stroke-linejoin="round"/>
<path d="M1040.93 596.707C1095.32 616.986 1143.73 650.654 1181.66 694.597C1219.6 738.54 1245.84 791.338 1257.96 848.11C1270.08 904.883 1267.69 963.795 1251.02 1019.4C1234.34 1075 1203.91 1125.5 1162.54 1166.23C1121.17 1206.96 1070.2 1236.6 1014.34 1252.41C958.486 1268.22 899.543 1269.69 842.967 1256.68C786.391 1243.67 734.008 1216.61 690.663 1177.99C647.317 1139.38 614.409 1090.45 594.981 1035.75" stroke="#FFF942" stroke-width="99" stroke-linecap="round" stroke-linejoin="round"/>
<path d="M402.792 345.25H460.333V575.417" stroke="#FFF942" stroke-width="99" stroke-linecap="round" stroke-linejoin="round"/>
<path d="M961.521 798.678L1001.8 839.533L839.533 1001.8" stroke="#FFF942" stroke-width="99" stroke-linecap="round" stroke-linejoin="round"/>
</svg>
